<svg xmlns="http://www.w3.org/2000/svg" width="163.281" height="34.938"><path d="M13.518.662H-.014v33.6h13.532c9.327 0 16.431-7.3 16.431-16.8S22.845.662 13.518.662zm0 26.207h-5.8V8.05h5.8c5.316 0 8.988 3.648 8.988 9.408s-3.672 9.411-8.988 9.411zm29 0v-5.952h12.078v-7.3H42.514V8.05h13.292V.662H34.782v33.6h21.264v-7.393H42.514zm26.484 7.392h9.859L89.88.661h-8.458l-7.49 24.719L66.441.661h-8.457zM93.263.661v33.6h7.732V.661h-7.732zm30.156 34.271a16.782 16.782 0 0 0 14.5-7.776l-6.67-3.84a8.7 8.7 0 0 1-7.829 4.128c-5.992 0-9.858-3.984-9.858-9.984s3.866-9.984 9.858-9.984a8.759 8.759 0 0 1 7.829 4.128l6.67-3.84a16.9 16.9 0 0 0-14.5-7.776c-10.2 0-17.591 7.584-17.591 17.472s7.39 17.473 17.587 17.473zm26.34-8.064v-5.951h12.082v-7.3h-12.086V8.05h13.29V.662h-21.023v33.6h21.264v-7.393h-13.531z" fill-rule="evenodd"/></svg>